<?xml version="1.0" encoding="utf-8"?>
<!-- Generator: Adobe Illustrator 22.1.0, SVG Export Plug-In . SVG Version: 6.00 Build 0)  -->
<svg version="1.1" id="Layer_1" xmlns="http://www.w3.org/2000/svg" xmlns:xlink="http://www.w3.org/1999/xlink" x="0px" y="0px"
	 viewBox="0 0 512 512" style="enable-background:new 0 0 512 512;" xml:space="preserve">
<style type="text/css">
	.st0{fill:#FFFFFF;}
</style>
<g>
	<path class="st0" d="M106.9,499.3c0.6,7.6,7.2,13.3,14.8,12.7l306.9-24.2c7.6-0.6,13.3-7.2,12.7-14.8L405.1,12.7
		c-0.6-7.6-7.2-13.3-14.8-12.7L83.3,24.2c-7.6,0.6-13.3,7.2-12.7,14.8L106.9,499.3z"/>
	<g>
		<g>
			<path d="M120.7,318.1c-0.4-4.9-0.8-9.8-1.2-14.7c4.9-0.4,9.7-0.8,14.7-1.2c-0.4-5-0.8-9.8-1.1-14.6c4.9-0.4,9.7-0.8,14.7-1.2
				c1.2,14.7,2.3,29.3,3.5,43.9c5-0.4,9.7-0.8,14.5-1.1c-2.7-34.3-5.4-68.5-8.1-102.8c-14.7,1.2-29.4,2.3-44,3.5
				c-0.8-9.8-1.5-19.6-2.3-29.4c9.8-0.8,19.5-1.5,29.2-2.3c-0.4-5.1-0.8-9.8-1.2-14.8c-4.9,0.4-9.7,0.8-14.4,1.1
				c-0.4-4.9-0.8-9.7-1.2-14.7c4.9-0.4,9.6-0.8,14.6-1.1c-0.4-4.9-0.8-9.7-1.1-14.5c5-0.4,9.8-0.8,14.7-1.2
				c0.4,4.9,0.8,9.6,1.1,14.4c4.9-0.4,9.7-0.8,14.7-1.2c-0.4-4.9-0.8-9.7-1.1-14.5c5-0.4,9.7-0.8,14.7-1.2c0.4,4.9,0.8,9.7,1.2,14.6
				c5-0.4,9.9-0.8,14.7-1.2l-0.1,0c0.4,4.9,0.8,9.7,1.2,14.8c-9.9,0.8-19.6,1.5-29.3,2.3c0.4,5,0.8,9.7,1.1,14.5
				c58.8-4.6,117.4-9.2,176.3-13.9c-0.8-9.8-1.5-19.5-2.3-29.3c5-0.4,9.8-0.8,14.7-1.2l-0.1,0c1.2,14.7,2.3,29.3,3.5,44.2
				c-5,0.4-9.8,0.8-14.5,1.1c0.8,9.9,1.5,19.6,2.3,29.2c4.9-0.4,9.6-0.8,14.6-1.1c-0.4-4.9-0.8-9.7-1.1-14.5c5-0.4,9.8-0.8,14.6-1.2
				c0.8,9.8,1.5,19.6,2.3,29.3l0-0.1c-9.8,0.8-19.5,1.5-29.3,2.3c0.4,5,0.8,9.8,1.2,14.8c4.9-0.4,9.7-0.8,14.5-1.1
				c0.4,5,0.8,9.8,1.2,14.6l0-0.1c-4.9,0.4-9.7,0.8-14.6,1.1c1.6,19.7,3.1,39.2,4.6,58.8c4.9-0.4,9.7-0.8,14.5-1.1c0,0-0.1,0-0.1,0
				c0.1,0.7,0.2,1.5,0.3,2.2c1.1,14,2.2,28,3.3,42c-14.7,1.2-29.3,2.3-44.1,3.5c0.4,5,0.8,9.9,1.2,14.7c0,0,0.1-0.1,0.1-0.1
				c-4.9,0.4-9.8,0.8-14.7,1.2c-0.4-4.9-0.8-9.7-1.1-14.6c-5,0.4-9.8,0.8-14.6,1.2c0.4,5,0.8,9.8,1.1,14.6
				c-9.8,0.8-19.6,1.5-29.4,2.3c-0.4-4.9-0.8-9.7-1.1-14.6c-5,0.4-9.8,0.8-14.6,1.2c0.4,5,0.8,9.8,1.1,14.6
				c-4.9,0.4-9.8,0.8-14.7,1.2c-0.4-4.9-0.8-9.7-1.1-14.6c-5,0.4-9.8,0.8-14.6,1.2c0.4,5,0.8,9.8,1.1,14.6
				c-4.9,0.4-9.8,0.8-14.7,1.2c-0.4-4.9-0.8-9.7-1.2-14.8c-14.8,1.2-29.4,2.3-44.1,3.5c-0.8-9.9-1.5-19.5-2.3-29.4
				c-5,0.4-9.8,0.8-14.7,1.2l0.1,0.1c-0.4-4.9-0.8-9.7-1.2-14.7c-5.1,0.4-9.9,0.8-14.7,1.2l0.1,0c-0.8-9.8-1.5-19.5-2.3-29.4
				C130.3,317.3,125.5,317.7,120.7,318.1z M171.5,210.7c4.2,53.9,8.5,107.7,12.7,161.4c53.9-4.2,107.7-8.5,161.4-12.7
				c-4.2-53.9-8.5-107.6-12.7-161.4C279.1,202.2,225.4,206.4,171.5,210.7z"/>
			<path d="M394.4,414.8c-0.4-4.8-0.8-9.6-1.2-14.6c-4.9,0.4-9.7,0.8-14.7,1.2c-0.8-9.9-1.6-19.7-2.3-29.5c4.9-0.4,9.8-0.7,14.7-1.1
				l-0.1,0c0.4,4.8,0.8,9.6,1.2,14.7c4.9-0.4,9.7-0.8,14.7-1.2c0.8,9.9,1.6,19.7,2.3,29.4C404.2,414,399.3,414.4,394.4,414.8z"/>
			<path d="M159.3,433.3c-0.8-9.7-1.5-19.4-2.3-29.3c9.8-0.8,19.5-1.5,29.4-2.3c0.8,9.7,1.5,19.5,2.3,29.3
				C178.9,431.8,169.1,432.5,159.3,433.3z"/>
			<path d="M333.3,390.1c9.7-0.8,19.4-1.5,29.3-2.3c0.4,4.8,0.8,9.6,1.1,14.6c-4.7,0.4-9.5,0.7-14.5,1.1c0.4,5,0.8,9.9,1.2,14.8
				c-9.8,0.8-19.6,1.5-29.4,2.3c-0.4-4.9-0.8-9.8-1.2-14.7c4.9-0.4,9.7-0.8,14.7-1.2C334.1,399.7,333.8,394.8,333.3,390.1
				L333.3,390.1z"/>
			<path d="M153.5,359.8c0.4,4.8,0.8,9.6,1.2,14.7c-9.8,0.8-19.6,1.5-29.4,2.3c-0.8-9.8-1.5-19.6-2.3-29.4c4.9-0.4,9.8-0.8,14.7-1.1
				l-0.1,0c0.4,4.9,0.8,9.7,1.2,14.7C143.9,360.6,148.8,360.2,153.5,359.8L153.5,359.8z"/>
			<path d="M215.8,399.3c0.8,9.8,1.5,19.6,2.3,29.4c-4.9,0.4-9.8,0.8-14.7,1.2c-0.8-9.7-1.5-19.4-2.3-29.4
				C206.1,400,211,399.7,215.8,399.3z"/>
			<path d="M116.1,259.3c9.7-0.8,19.4-1.5,29.3-2.3c0.4,4.9,0.8,9.7,1.2,14.7c-9.8,0.8-19.5,1.5-29.3,2.3
				C116.9,269.1,116.5,264.2,116.1,259.3z"/>
			<path d="M305.1,407c0.4,4.9,0.8,9.8,1.1,14.7c-4.9,0.4-9.8,0.8-14.7,1.2c-0.4-4.8-0.8-9.6-1.2-14.7
				C295.4,407.8,300.3,407.4,305.1,407z"/>
			<path d="M197.3,164.2c-0.4-4.8-0.8-9.6-1.1-14.6c9.8-0.8,19.5-1.5,29.3-2.3c0.8,9.7,1.5,19.4,2.3,29.2c-4.8,0.4-9.6,0.8-14.5,1.1
				c-0.4-4.8-0.8-9.6-1.2-14.6C207,163.4,202.1,163.8,197.3,164.2C197.3,164.2,197.3,164.2,197.3,164.2z"/>
			<path d="M300.1,156.1c4.8-0.4,9.6-0.8,14.7-1.2c-0.4-4.9-0.8-9.7-1.2-14.6c4.9-0.4,9.7-0.8,14.6-1.1c0.8,9.6,1.5,19.3,2.3,29.1
				c-9.6,0.8-19.3,1.5-29.2,2.3C301,165.8,300.6,160.9,300.1,156.1L300.1,156.1z"/>
			<path d="M285.4,157.2c0.4,4.8,0.8,9.7,1.2,14.6c-14.5,1.1-29.1,2.3-43.8,3.4c-0.4-4.7-0.7-9.5-1.1-14.6
				C256.1,159.5,270.8,158.4,285.4,157.2C285.4,157.2,285.4,157.2,285.4,157.2z"/>
			<path d="M359,151.5c-0.4-4.8-0.8-9.6-1.1-14.6c9.8-0.8,19.4-1.5,29.2-2.3c0.4,4.8,0.8,9.6,1.1,14.5
				C378.4,149.9,368.7,150.7,359,151.5C358.9,151.5,359,151.5,359,151.5z"/>
			<path d="M391,370.8c-0.4-4.8-0.8-9.6-1.1-14.6c4.9-0.4,9.6-0.8,14.5-1.1c0.4,4.8,0.8,9.5,1.1,14.5
				C400.7,369.9,395.8,370.3,391,370.8C390.9,370.7,391,370.8,391,370.8z"/>
			<path d="M387.4,326.8c4.9-0.4,9.7-0.8,14.7-1.2c0.4,4.8,0.8,9.6,1.1,14.4c-4.8,0.4-9.5,0.8-14.6,1.2
				C388.2,336.4,387.9,331.5,387.4,326.8C387.5,326.7,387.4,326.8,387.4,326.8z"/>
			<path d="M386.3,311.9c0.4,4.9,0.7,9.9,1.1,14.8c0,0,0-0.1,0-0.1c-4.9,0.3-9.8,0.7-14.8,1c0,0,0.1,0,0.1,0
				c-0.4-4.8-0.8-9.6-1.2-14.6C376.6,312.7,381.5,312.4,386.3,311.9C386.4,312,386.3,311.9,386.3,311.9z"/>
			<path d="M386.4,312c-0.4-4.8-0.8-9.6-1.1-14.6c4.9-0.4,9.6-0.8,14.5-1.1c0.4,4.8,0.8,9.5,1.1,14.5
				C396,311.2,391.2,311.6,386.4,312C386.3,311.9,386.4,312,386.4,312z"/>
			<path d="M368.2,269.1c4.8-0.4,9.6-0.8,14.6-1.1c0.4,4.9,0.8,9.6,1.1,14.5c-4.8,0.4-9.5,0.8-14.5,1.1
				C369,278.7,368.6,273.9,368.2,269.1C368.2,269,368.2,269.1,368.2,269.1z"/>
			<path d="M380.5,238.5c4.8-0.4,9.6-0.8,14.6-1.1c0.4,4.9,0.8,9.6,1.1,14.5c-4.8,0.4-9.5,0.8-14.5,1.1
				C381.3,248.2,381,243.3,380.5,238.5C380.6,238.4,380.5,238.5,380.5,238.5z"/>
			<path d="M300.2,156.1c-4.9,0.4-9.9,0.7-14.8,1.1c0,0,0.1,0,0.1,0c-0.4-4.8-0.8-9.6-1.1-14.5c5-0.4,9.7-0.8,14.7-1.2
				C299.4,146.4,299.8,151.3,300.2,156.1C300.1,156.1,300.2,156.1,300.2,156.1z"/>
			<ellipse transform="matrix(0.2138 -0.9769 0.9769 0.2138 -144.687 618.4734)" cx="311.9" cy="399.1" rx="10.5" ry="10.5"/>
			<path d="M259.9,395.8c4.9-0.4,9.8-0.8,14.7-1.2c0.4,4.8,0.8,9.6,1.1,14.6c-4.9,0.4-9.7,0.8-14.7,1.2
				C260.6,405.5,260.2,400.7,259.9,395.8z"/>
			<path d="M230.5,398.1c4.9-0.4,9.8-0.8,14.7-1.2c0.4,4.8,0.8,9.6,1.1,14.6c-4.9,0.4-9.7,0.8-14.7,1.2
				C231.2,407.8,230.9,403,230.5,398.1z"/>
			<path d="M319.4,213.9c3.5,44.1,6.9,88,10.4,132c-44,3.5-87.9,6.9-132,10.4c-3.5-43.9-6.9-87.9-10.4-132
				C231.3,220.8,275.3,217.3,319.4,213.9z M211.2,340.4c34.3-2.7,68.5-5.4,102.6-8.1c-2.7-34.3-5.4-68.5-8.1-102.6
				c-34.3,2.7-68.4,5.4-102.6,8.1C205.9,272,208.6,306.1,211.2,340.4z"/>
			<path d="M219.1,251.3c24.5-1.9,48.8-3.8,73.2-5.8c1.9,24.4,3.8,48.8,5.8,73.2c-24.3,1.9-48.7,3.8-73.2,5.8
				C222.9,300.2,221,275.8,219.1,251.3z M238.3,308.7c14.7-1.2,29.3-2.3,43.9-3.5c-1.2-14.7-2.3-29.3-3.5-43.9
				c-14.7,1.2-29.2,2.3-43.9,3.5C236,279.5,237.2,294,238.3,308.7z"/>
			<path d="M265.2,277.2c0.4,4.8,0.8,9.6,1.1,14.5c-4.8,0.4-9.6,0.8-14.5,1.1c-0.4-4.8-0.8-9.6-1.1-14.5
				C255.5,278,260.3,277.6,265.2,277.2z"/>
		</g>
	</g>
	<g>
		<path d="M105.7,55.3c2.2-2.6,5.1-4,8.7-4.3c4.9-0.4,8.6,1,11.1,4c1.4,1.7,2.2,3.5,2.4,5.3l-6.1,0.5c-0.5-1.4-1.1-2.4-1.7-3.1
			c-1.2-1.2-2.9-1.7-5-1.5c-2.2,0.2-3.8,1.2-4.9,3.1s-1.5,4.5-1.3,7.8c0.3,3.3,1.1,5.7,2.6,7.2c1.5,1.5,3.2,2.2,5.2,2.1
			c2.1-0.2,3.6-1,4.6-2.5c0.5-0.8,1-2,1.2-3.5l6.1-0.5c-0.3,3.2-1.4,5.9-3.4,8.1c-2,2.2-4.7,3.4-8,3.6c-4.2,0.3-7.5-0.8-10.1-3.3
			c-2.6-2.5-4.1-6.1-4.4-10.9C102.1,62.4,103.2,58.3,105.7,55.3z"/>
		<path d="M147.1,56.8c1.1,0.4,2.1,1,2.8,1.9c0.7,0.8,1.1,1.6,1.3,2.4c0.2,0.8,0.4,2.2,0.5,4.2l1,12.7l-5.8,0.5l-1-13.2
			c-0.1-1.2-0.4-2.1-0.8-2.8c-0.6-1-1.6-1.4-3-1.3c-1.5,0.1-2.6,0.7-3.3,1.8c-0.7,1.1-1,2.5-0.8,4.4l0.9,11.7l-5.7,0.4L131,50.4
			l5.7-0.4l0.8,10.3c0.7-1.3,1.6-2.3,2.6-2.9c1-0.6,2.1-0.9,3.3-1C144.7,56.3,145.9,56.4,147.1,56.8z"/>
		<path d="M170.1,55.3c1.6,0.6,2.9,1.5,4,2.9c1,1.2,1.7,2.7,2.1,4.3c0.2,1,0.4,2.4,0.5,4.3L161,68c0.3,2.2,1.1,3.6,2.6,4.4
			c0.9,0.5,2,0.7,3.2,0.6c1.3-0.1,2.3-0.5,3.1-1.2c0.4-0.4,0.8-0.9,1-1.6l5.8-0.5c-0.1,1.3-0.6,2.7-1.8,4.1
			c-1.8,2.3-4.4,3.5-7.9,3.8c-2.9,0.2-5.5-0.5-7.8-2.1c-2.3-1.6-3.7-4.4-4-8.4c-0.3-3.7,0.5-6.7,2.3-8.8s4.3-3.4,7.5-3.6
			C166.9,54.5,168.6,54.7,170.1,55.3z M162.1,60.8c-0.7,0.9-1.1,2-1.2,3.5l9.7-0.8c-0.2-1.5-0.8-2.6-1.8-3.3c-1-0.7-2.1-1-3.4-0.9
			C163.9,59.5,162.8,60,162.1,60.8z"/>
		<path d="M192.5,60.9c-0.2-0.8-0.5-1.5-1-2.1c-0.7-0.8-1.7-1.2-3.1-1.1c-1.9,0.2-3.1,1.2-3.7,3.1c-0.3,1-0.4,2.4-0.2,4
			c0.1,1.6,0.4,2.8,0.9,3.8c0.8,1.7,2.2,2.5,4,2.4c1.3-0.1,2.2-0.5,2.7-1.3c0.5-0.8,0.8-1.7,0.8-2.9l5.8-0.5c0,1.7-0.5,3.4-1.5,5
			c-1.6,2.6-4.1,4.1-7.6,4.3c-3.5,0.3-6.1-0.6-7.9-2.5c-1.8-1.9-2.8-4.5-3.1-7.8c-0.3-3.7,0.4-6.7,2-8.9c1.7-2.2,4.1-3.4,7.3-3.7
			c2.7-0.2,5,0.2,6.8,1.3c1.8,1.1,3,3.1,3.6,6.2L192.5,60.9z"/>
		<path d="M200.5,44.9l5.6-0.4l1.2,15.8l6.5-8.7l7-0.6l-7.1,8.7l9.1,12.8L216,73l-6-8.8l-2.1,2.6l0.5,6.8l-5.6,0.4L200.5,44.9z"/>
		<path d="M242,68.3c-1.6,2.4-4.3,3.7-8,4c-3.7,0.3-6.6-0.6-8.6-2.7c-2-2.1-3.1-4.7-3.4-7.9c-0.2-3.1,0.5-5.9,2.1-8.3
			c1.6-2.4,4.3-3.8,8-4.1c3.7-0.3,6.6,0.6,8.6,2.8c2,2.1,3.1,4.8,3.4,7.9C244.4,63.1,243.7,65.9,242,68.3z M237.3,65.5
			c0.8-1.2,1.1-2.9,0.9-5.1c-0.2-2.2-0.7-3.8-1.7-4.9c-1-1.1-2.3-1.6-3.9-1.5c-1.7,0.1-2.9,0.8-3.7,2.1c-0.8,1.2-1.1,2.9-0.9,5.1
			c0.2,2.2,0.7,3.8,1.7,4.9s2.3,1.6,4,1.5C235.3,67.5,236.5,66.8,237.3,65.5z"/>
		<path d="M252.4,48.4l1,13c0.1,1.2,0.3,2.1,0.7,2.7c0.6,1.1,1.6,1.5,3.1,1.4c1.9-0.2,3.2-1,3.8-2.7c0.3-0.9,0.4-2,0.3-3.4
			l-0.9-11.8l5.7-0.5l1.7,21.6l-5.5,0.4l-0.2-3.1c0,0.1-0.2,0.3-0.3,0.6c-0.2,0.3-0.4,0.7-0.7,0.9c-0.8,0.9-1.6,1.5-2.4,1.8
			c-0.8,0.4-1.8,0.6-2.9,0.7c-3.2,0.3-5.4-0.7-6.7-2.9c-0.7-1.2-1.2-3.1-1.4-5.5l-1-13L252.4,48.4z"/>
		<path d="M269.2,51.3l-0.3-4l3-0.2l-0.5-6l5.6-0.4l0.5,6l3.5-0.3l0.3,4l-3.5,0.3l0.9,11.4c0.1,0.9,0.2,1.4,0.5,1.6
			c0.2,0.2,0.9,0.3,2.1,0.2c0.2,0,0.4,0,0.5-0.1c0.2,0,0.4,0,0.6-0.1l0.3,4.2l-2.7,0.3c-2.7,0.3-4.5,0-5.6-1
			c-0.7-0.6-1.1-1.6-1.2-2.9l-1-13.3L269.2,51.3z"/>
	</g>
	<g>
		<path d="M134.1,456.7l3.4-0.3l0.8,10.3l12.9-1l-0.8-10.3l3.4-0.3l2,25l-3.4,0.3l-0.9-11.7l-12.9,1l0.9,11.7l-3.4,0.3L134.1,456.7z
			"/>
		<path d="M158.9,454.8l18.1-1.4l0.2,3.1l-14.8,1.2l0.6,7.6l13.7-1.1l0.2,2.9l-13.7,1.1l0.7,8.5l15.1-1.2l0.2,3l-18.4,1.4
			L158.9,454.8z"/>
		<path d="M180.8,453l3.4-0.3l1.7,22l12.5-1l0.2,3l-15.9,1.3L180.8,453z"/>
		<path d="M199.6,451.6l3.4-0.3l1.7,22l12.5-1l0.2,3l-15.9,1.3L199.6,451.6z"/>
		<path d="M238.5,452.1c1.8,2.1,2.9,4.8,3.2,8.3c0.3,3.7-0.4,6.9-2.1,9.5c-2,3.1-5.1,4.8-9.2,5.1c-3.8,0.3-7-0.7-9.4-3.1
			c-2.2-2.3-3.4-5.3-3.7-9.1c-0.3-3.4,0.3-6.3,1.8-8.9c1.9-3.3,5-5.1,9.2-5.4C232.8,448.3,236.2,449.4,238.5,452.1z M236.8,468.3
			c1.2-2.2,1.6-4.8,1.4-7.5c-0.2-2.9-1.2-5.2-2.9-6.9c-1.7-1.7-3.9-2.4-6.5-2.2c-2.6,0.2-4.6,1.3-6.1,3.2c-1.5,1.9-2.1,4.6-1.8,8.1
			c0.2,2.8,1.1,5.1,2.7,6.8c1.6,1.8,3.9,2.6,7,2.3C233.6,471.7,235.6,470.5,236.8,468.3z"/>
		<path d="M256.1,447.1l6.3,19.9l4.1-20.8l3.7-0.3l7.3,19.9l3.1-20.7l3.7-0.3l-4.6,25.5l-3.6,0.3l-7.4-20.3l-4.2,21.2l-3.6,0.3
			l-8.5-24.5L256.1,447.1z"/>
		<path d="M307.3,446.7c1.8,2.1,2.9,4.8,3.2,8.3c0.3,3.7-0.4,6.9-2.1,9.5c-2,3.1-5.1,4.8-9.2,5.1c-3.8,0.3-7-0.7-9.4-3.1
			c-2.2-2.3-3.4-5.3-3.7-9.1c-0.3-3.4,0.3-6.3,1.8-8.9c1.9-3.3,5-5,9.2-5.4C301.6,442.8,305,444,307.3,446.7z M305.6,462.8
			c1.2-2.2,1.6-4.8,1.4-7.5c-0.2-2.9-1.2-5.2-2.9-6.9c-1.7-1.7-3.9-2.4-6.5-2.2c-2.6,0.2-4.6,1.3-6.1,3.2c-1.5,1.9-2.1,4.6-1.8,8.1
			c0.2,2.8,1.1,5.1,2.7,6.8c1.5,1.8,3.9,2.6,7,2.3C302.3,466.3,304.4,465.1,305.6,462.8z"/>
		<path d="M313.5,442.6l11.4-0.9c1.9-0.1,3.4,0,4.7,0.5c2.4,0.9,3.7,2.8,3.9,5.6c0.1,1.5-0.1,2.7-0.6,3.7c-0.5,1-1.3,1.8-2.4,2.5
			c1,0.3,1.8,0.8,2.3,1.4c0.5,0.6,0.9,1.6,1.1,3.1l0.4,3.3c0.1,1,0.2,1.7,0.4,2.1c0.3,0.8,0.7,1.3,1.2,1.4l0,0.6l-4.2,0.3
			c-0.1-0.2-0.2-0.5-0.3-0.8c-0.1-0.3-0.2-1-0.3-2l-0.5-4.2c-0.2-1.6-0.9-2.7-2-3.1c-0.7-0.3-1.7-0.3-3-0.2l-7.5,0.6l0.8,10.7
			l-3.4,0.3L313.5,442.6z M325.4,453.2c1.5-0.1,2.7-0.5,3.6-1.2c0.8-0.7,1.2-1.9,1.1-3.5c-0.1-1.8-0.9-2.9-2.2-3.5
			c-0.7-0.3-1.6-0.4-2.7-0.3l-8,0.6l0.7,8.5L325.4,453.2z"/>
		<path d="M337.6,440.7l3.4-0.3l1.7,22l12.5-1l0.2,3l-15.9,1.3L337.6,440.7z"/>
		<path d="M356.5,439.2l10-0.8c3.4-0.3,6.1,0.7,8.2,3c1.8,2.1,2.9,4.8,3.2,8.3c0.2,2.7-0.1,5.1-0.9,7.3c-1.4,3.9-4.3,6.1-8.5,6.4
			l-10,0.8L356.5,439.2z M367.5,460.6c1.1-0.1,2-0.3,2.7-0.6c1.3-0.5,2.2-1.5,3-2.8c0.6-1.1,0.9-2.4,1.1-4c0.1-1,0.1-1.8,0-2.6
			c-0.2-3.1-1-5.5-2.4-7.1c-1.3-1.6-3.3-2.3-6-2.1l-5.9,0.5l1.5,19.2L367.5,460.6z"/>
	</g>
</g>
</svg>
