<?xml version="1.0" encoding="utf-8"?>
<!-- Generator: Adobe Illustrator 27.1.1, SVG Export Plug-In . SVG Version: 6.00 Build 0)  -->
<svg version="1.1" id="Layer_1" xmlns="http://www.w3.org/2000/svg" xmlns:xlink="http://www.w3.org/1999/xlink" x="0px" y="0px"
	 viewBox="0 0 370.8 512.1" style="enable-background:new 0 0 370.8 512.1;" xml:space="preserve">
<style type="text/css">
	.st0{fill:#FFFFFF;}
</style>
<g>
	<path class="st0" d="M36.3,499.3c0.6,7.6,7.2,13.3,14.8,12.7L358,487.8c7.6-0.6,13.3-7.2,12.7-14.8L334.5,12.7
		c-0.6-7.6-7.2-13.3-14.8-12.7l-307,24.2C5.1,24.8-0.6,31.4,0,39L36.3,499.3z"/>
	<g>
		<g>
			<path d="M50.1,318.1c-0.4-4.9-0.8-9.8-1.2-14.7c4.9-0.4,9.7-0.8,14.7-1.2c-0.4-5-0.8-9.8-1.1-14.6c4.9-0.4,9.7-0.8,14.7-1.2
				c1.2,14.7,2.3,29.3,3.5,43.9c5-0.4,9.7-0.8,14.5-1.1c-2.7-34.3-5.4-68.5-8.1-102.8c-14.7,1.2-29.4,2.3-44,3.5
				c-0.8-9.8-1.5-19.6-2.3-29.4c9.8-0.8,19.5-1.5,29.2-2.3c-0.4-5.1-0.8-9.8-1.2-14.8c-4.9,0.4-9.7,0.8-14.4,1.1
				c-0.4-4.9-0.8-9.7-1.2-14.7c4.9-0.4,9.6-0.8,14.6-1.1c-0.4-4.9-0.8-9.7-1.1-14.5c5-0.4,9.8-0.8,14.7-1.2
				c0.4,4.9,0.8,9.6,1.1,14.4c4.9-0.4,9.7-0.8,14.7-1.2c-0.4-4.9-0.8-9.7-1.1-14.5c5-0.4,9.7-0.8,14.7-1.2c0.4,4.9,0.8,9.7,1.2,14.6
				c5-0.4,9.9-0.8,14.7-1.2h-0.1c0.4,4.9,0.8,9.7,1.2,14.8c-9.9,0.8-19.6,1.5-29.3,2.3c0.4,5,0.8,9.7,1.1,14.5
				c58.8-4.6,117.4-9.2,176.3-13.9c-0.8-9.8-1.5-19.5-2.3-29.3c5-0.4,9.8-0.8,14.7-1.2h-0.1c1.2,14.7,2.3,29.3,3.5,44.2
				c-5,0.4-9.8,0.8-14.5,1.1c0.8,9.9,1.5,19.6,2.3,29.2c4.9-0.4,9.6-0.8,14.6-1.1c-0.4-4.9-0.8-9.7-1.1-14.5c5-0.4,9.8-0.8,14.6-1.2
				c0.8,9.8,1.5,19.6,2.3,29.3V238c-9.8,0.8-19.5,1.5-29.3,2.3c0.4,5,0.8,9.8,1.2,14.8c4.9-0.4,9.7-0.8,14.5-1.1
				c0.4,5,0.8,9.8,1.2,14.6v-0.1c-4.9,0.4-9.7,0.8-14.6,1.1c1.6,19.7,3.1,39.2,4.6,58.8c4.9-0.4,9.7-0.8,14.5-1.1h-0.1
				c0.1,0.7,0.2,1.5,0.3,2.2c1.1,14,2.2,28,3.3,42c-14.7,1.2-29.3,2.3-44.1,3.5c0.4,5,0.8,9.9,1.2,14.7l0.1-0.1
				c-4.9,0.4-9.8,0.8-14.7,1.2c-0.4-4.9-0.8-9.7-1.1-14.6c-5,0.4-9.8,0.8-14.6,1.2c0.4,5,0.8,9.8,1.1,14.6
				c-9.8,0.8-19.6,1.5-29.4,2.3c-0.4-4.9-0.8-9.7-1.1-14.6c-5,0.4-9.8,0.8-14.6,1.2c0.4,5,0.8,9.8,1.1,14.6
				c-4.9,0.4-9.8,0.8-14.7,1.2c-0.4-4.9-0.8-9.7-1.1-14.6c-5,0.4-9.8,0.8-14.6,1.2c0.4,5,0.8,9.8,1.1,14.6
				c-4.9,0.4-9.8,0.8-14.7,1.2c-0.4-4.9-0.8-9.7-1.2-14.8c-14.8,1.2-29.4,2.3-44.1,3.5c-0.8-9.9-1.5-19.5-2.3-29.4
				c-5,0.4-9.8,0.8-14.7,1.2l0.1,0.1c-0.4-4.9-0.8-9.7-1.2-14.7c-5.1,0.4-9.9,0.8-14.7,1.2h0.1c-0.8-9.8-1.5-19.5-2.3-29.4
				C59.7,317.3,54.9,317.7,50.1,318.1z M100.9,210.7c4.2,53.9,8.5,107.7,12.7,161.4c53.9-4.2,107.7-8.5,161.4-12.7
				c-4.2-53.9-8.5-107.6-12.7-161.4C208.5,202.2,154.8,206.4,100.9,210.7z"/>
			<path d="M323.8,414.8c-0.4-4.8-0.8-9.6-1.2-14.6c-4.9,0.4-9.7,0.8-14.7,1.2c-0.8-9.9-1.6-19.7-2.3-29.5c4.9-0.4,9.8-0.7,14.7-1.1
				h-0.1c0.4,4.8,0.8,9.6,1.2,14.7c4.9-0.4,9.7-0.8,14.7-1.2c0.8,9.9,1.6,19.7,2.3,29.4C333.6,414,328.7,414.4,323.8,414.8z"/>
			<path d="M88.7,433.3c-0.8-9.7-1.5-19.4-2.3-29.3c9.8-0.8,19.5-1.5,29.4-2.3c0.8,9.7,1.5,19.5,2.3,29.3
				C108.3,431.8,98.5,432.5,88.7,433.3z"/>
			<path d="M262.7,390.1c9.7-0.8,19.4-1.5,29.3-2.3c0.4,4.8,0.8,9.6,1.1,14.6c-4.7,0.4-9.5,0.7-14.5,1.1c0.4,5,0.8,9.9,1.2,14.8
				c-9.8,0.8-19.6,1.5-29.4,2.3c-0.4-4.9-0.8-9.8-1.2-14.7c4.9-0.4,9.7-0.8,14.7-1.2C263.5,399.7,263.2,394.8,262.7,390.1
				L262.7,390.1z"/>
			<path d="M82.9,359.8c0.4,4.8,0.8,9.6,1.2,14.7c-9.8,0.8-19.6,1.5-29.4,2.3c-0.8-9.8-1.5-19.6-2.3-29.4c4.9-0.4,9.8-0.8,14.7-1.1
				H67c0.4,4.9,0.8,9.7,1.2,14.7C73.3,360.6,78.2,360.2,82.9,359.8L82.9,359.8z"/>
			<path d="M145.2,399.3c0.8,9.8,1.5,19.6,2.3,29.4c-4.9,0.4-9.8,0.8-14.7,1.2c-0.8-9.7-1.5-19.4-2.3-29.4
				C135.5,400,140.4,399.7,145.2,399.3z"/>
			<path d="M45.5,259.3c9.7-0.8,19.4-1.5,29.3-2.3c0.4,4.9,0.8,9.7,1.2,14.7c-9.8,0.8-19.5,1.5-29.3,2.3
				C46.3,269.1,45.9,264.2,45.5,259.3z"/>
			<path d="M234.5,407c0.4,4.9,0.8,9.8,1.1,14.7c-4.9,0.4-9.8,0.8-14.7,1.2c-0.4-4.8-0.8-9.6-1.2-14.7
				C224.8,407.8,229.7,407.4,234.5,407z"/>
			<path d="M126.7,164.2c-0.4-4.8-0.8-9.6-1.1-14.6c9.8-0.8,19.5-1.5,29.3-2.3c0.8,9.7,1.5,19.4,2.3,29.2c-4.8,0.4-9.6,0.8-14.5,1.1
				c-0.4-4.8-0.8-9.6-1.2-14.6C136.4,163.4,131.5,163.8,126.7,164.2L126.7,164.2z"/>
			<path d="M229.5,156.1c4.8-0.4,9.6-0.8,14.7-1.2c-0.4-4.9-0.8-9.7-1.2-14.6c4.9-0.4,9.7-0.8,14.6-1.1c0.8,9.6,1.5,19.3,2.3,29.1
				c-9.6,0.8-19.3,1.5-29.2,2.3C230.4,165.8,230,160.9,229.5,156.1L229.5,156.1z"/>
			<path d="M214.8,157.2c0.4,4.8,0.8,9.7,1.2,14.6c-14.5,1.1-29.1,2.3-43.8,3.4c-0.4-4.7-0.7-9.5-1.1-14.6
				C185.5,159.5,200.2,158.4,214.8,157.2L214.8,157.2z"/>
			<path d="M288.4,151.5c-0.4-4.8-0.8-9.6-1.1-14.6c9.8-0.8,19.4-1.5,29.2-2.3c0.4,4.8,0.8,9.6,1.1,14.5
				C307.8,149.9,298.1,150.7,288.4,151.5C288.3,151.5,288.4,151.5,288.4,151.5z"/>
			<path d="M320.4,370.8c-0.4-4.8-0.8-9.6-1.1-14.6c4.9-0.4,9.6-0.8,14.5-1.1c0.4,4.8,0.8,9.5,1.1,14.5
				C330.1,369.9,325.2,370.3,320.4,370.8C320.3,370.7,320.4,370.8,320.4,370.8z"/>
			<path d="M316.8,326.8c4.9-0.4,9.7-0.8,14.7-1.2c0.4,4.8,0.8,9.6,1.1,14.4c-4.8,0.4-9.5,0.8-14.6,1.2
				C317.6,336.4,317.3,331.5,316.8,326.8C316.9,326.7,316.8,326.8,316.8,326.8z"/>
			<path d="M315.7,311.9c0.4,4.9,0.7,9.9,1.1,14.8v-0.1c-4.9,0.3-9.8,0.7-14.8,1h0.1c-0.4-4.8-0.8-9.6-1.2-14.6
				C306,312.7,310.9,312.4,315.7,311.9C315.8,312,315.7,311.9,315.7,311.9z"/>
			<path d="M315.8,312c-0.4-4.8-0.8-9.6-1.1-14.6c4.9-0.4,9.6-0.8,14.5-1.1c0.4,4.8,0.8,9.5,1.1,14.5
				C325.4,311.2,320.6,311.6,315.8,312C315.7,311.9,315.8,312,315.8,312z"/>
			<path d="M297.6,269.1c4.8-0.4,9.6-0.8,14.6-1.1c0.4,4.9,0.8,9.6,1.1,14.5c-4.8,0.4-9.5,0.8-14.5,1.1
				C298.4,278.7,298,273.9,297.6,269.1C297.6,269,297.6,269.1,297.6,269.1z"/>
			<path d="M309.9,238.5c4.8-0.4,9.6-0.8,14.6-1.1c0.4,4.9,0.8,9.6,1.1,14.5c-4.8,0.4-9.5,0.8-14.5,1.1
				C310.7,248.2,310.4,243.3,309.9,238.5C310,238.4,309.9,238.5,309.9,238.5z"/>
			<path d="M229.6,156.1c-4.9,0.4-9.9,0.7-14.8,1.1h0.1c-0.4-4.8-0.8-9.6-1.1-14.5c5-0.4,9.7-0.8,14.7-1.2
				C228.8,146.4,229.2,151.3,229.6,156.1C229.5,156.1,229.6,156.1,229.6,156.1z"/>
			<ellipse cx="241.3" cy="399.1" rx="10.5" ry="10.5"/>
			<path d="M189.3,395.8c4.9-0.4,9.8-0.8,14.7-1.2c0.4,4.8,0.8,9.6,1.1,14.6c-4.9,0.4-9.7,0.8-14.7,1.2
				C190,405.5,189.6,400.7,189.3,395.8z"/>
			<path d="M159.9,398.1c4.9-0.4,9.8-0.8,14.7-1.2c0.4,4.8,0.8,9.6,1.1,14.6c-4.9,0.4-9.7,0.8-14.7,1.2
				C160.6,407.8,160.3,403,159.9,398.1z"/>
			<path d="M248.8,213.9c3.5,44.1,6.9,88,10.4,132c-44,3.5-87.9,6.9-132,10.4c-3.5-43.9-6.9-87.9-10.4-132
				C160.7,220.8,204.7,217.3,248.8,213.9z M140.6,340.4c34.3-2.7,68.5-5.4,102.6-8.1c-2.7-34.3-5.4-68.5-8.1-102.6
				c-34.3,2.7-68.4,5.4-102.6,8.1C135.3,272,138,306.1,140.6,340.4z"/>
			<path d="M148.5,251.3c24.5-1.9,48.8-3.8,73.2-5.8c1.9,24.4,3.8,48.8,5.8,73.2c-24.3,1.9-48.7,3.8-73.2,5.8
				C152.3,300.2,150.4,275.8,148.5,251.3z M167.7,308.7c14.7-1.2,29.3-2.3,43.9-3.5c-1.2-14.7-2.3-29.3-3.5-43.9
				c-14.7,1.2-29.2,2.3-43.9,3.5C165.4,279.5,166.6,294,167.7,308.7z"/>
			<path d="M194.6,277.2c0.4,4.8,0.8,9.6,1.1,14.5c-4.8,0.4-9.6,0.8-14.5,1.1c-0.4-4.8-0.8-9.6-1.1-14.5
				C184.9,278,189.7,277.6,194.6,277.2z"/>
		</g>
	</g>
	<g>
		<path d="M35.1,55.3c2.2-2.6,5.1-4,8.7-4.3c4.9-0.4,8.6,1,11.1,4c1.4,1.7,2.2,3.5,2.4,5.3l-6.1,0.5c-0.5-1.4-1.1-2.4-1.7-3.1
			c-1.2-1.2-2.9-1.7-5-1.5c-2.2,0.2-3.8,1.2-4.9,3.1s-1.5,4.5-1.3,7.8c0.3,3.3,1.1,5.7,2.6,7.2s3.2,2.2,5.2,2.1
			c2.1-0.2,3.6-1,4.6-2.5c0.5-0.8,1-2,1.2-3.5l6.1-0.5c-0.3,3.2-1.4,5.9-3.4,8.1s-4.7,3.4-8,3.6c-4.2,0.3-7.5-0.8-10.1-3.3
			s-4.1-6.1-4.4-10.9C31.5,62.4,32.6,58.3,35.1,55.3z"/>
		<path d="M76.5,56.8c1.1,0.4,2.1,1,2.8,1.9c0.7,0.8,1.1,1.6,1.3,2.4c0.2,0.8,0.4,2.2,0.5,4.2l1,12.7l-5.8,0.5l-1-13.2
			c-0.1-1.2-0.4-2.1-0.8-2.8c-0.6-1-1.6-1.4-3-1.3c-1.5,0.1-2.6,0.7-3.3,1.8s-1,2.5-0.8,4.4l0.9,11.7l-5.7,0.4l-2.2-29.1l5.7-0.4
			l0.8,10.3c0.7-1.3,1.6-2.3,2.6-2.9c1-0.6,2.1-0.9,3.3-1C74.1,56.3,75.3,56.4,76.5,56.8z"/>
		<path d="M99.5,55.3c1.6,0.6,2.9,1.5,4,2.9c1,1.2,1.7,2.7,2.1,4.3c0.2,1,0.4,2.4,0.5,4.3L90.4,68c0.3,2.2,1.1,3.6,2.6,4.4
			c0.9,0.5,2,0.7,3.2,0.6c1.3-0.1,2.3-0.5,3.1-1.2c0.4-0.4,0.8-0.9,1-1.6l5.8-0.5c-0.1,1.3-0.6,2.7-1.8,4.1
			c-1.8,2.3-4.4,3.5-7.9,3.8c-2.9,0.2-5.5-0.5-7.8-2.1s-3.7-4.4-4-8.4c-0.3-3.7,0.5-6.7,2.3-8.8s4.3-3.4,7.5-3.6
			C96.3,54.5,98,54.7,99.5,55.3z M91.5,60.8c-0.7,0.9-1.1,2-1.2,3.5l9.7-0.8c-0.2-1.5-0.8-2.6-1.8-3.3s-2.1-1-3.4-0.9
			C93.3,59.5,92.2,60,91.5,60.8z"/>
		<path d="M121.9,60.9c-0.2-0.8-0.5-1.5-1-2.1c-0.7-0.8-1.7-1.2-3.1-1.1c-1.9,0.2-3.1,1.2-3.7,3.1c-0.3,1-0.4,2.4-0.2,4
			c0.1,1.6,0.4,2.8,0.9,3.8c0.8,1.7,2.2,2.5,4,2.4c1.3-0.1,2.2-0.5,2.7-1.3s0.8-1.7,0.8-2.9l5.8-0.5c0,1.7-0.5,3.4-1.5,5
			c-1.6,2.6-4.1,4.1-7.6,4.3c-3.5,0.3-6.1-0.6-7.9-2.5c-1.8-1.9-2.8-4.5-3.1-7.8c-0.3-3.7,0.4-6.7,2-8.9c1.7-2.2,4.1-3.4,7.3-3.7
			c2.7-0.2,5,0.2,6.8,1.3s3,3.1,3.6,6.2L121.9,60.9z"/>
		<path d="M129.9,44.9l5.6-0.4l1.2,15.8l6.5-8.7l7-0.6l-7.1,8.7l9.1,12.8l-6.8,0.5l-6-8.8l-2.1,2.6l0.5,6.8l-5.6,0.4L129.9,44.9z"/>
		<path d="M171.4,68.3c-1.6,2.4-4.3,3.7-8,4s-6.6-0.6-8.6-2.7s-3.1-4.7-3.4-7.9c-0.2-3.1,0.5-5.9,2.1-8.3c1.6-2.4,4.3-3.8,8-4.1
			s6.6,0.6,8.6,2.8c2,2.1,3.1,4.8,3.4,7.9C173.8,63.1,173.1,65.9,171.4,68.3z M166.7,65.5c0.8-1.2,1.1-2.9,0.9-5.1
			c-0.2-2.2-0.7-3.8-1.7-4.9c-1-1.1-2.3-1.6-3.9-1.5c-1.7,0.1-2.9,0.8-3.7,2.1c-0.8,1.2-1.1,2.9-0.9,5.1c0.2,2.2,0.7,3.8,1.7,4.9
			s2.3,1.6,4,1.5C164.7,67.5,165.9,66.8,166.7,65.5z"/>
		<path d="M181.8,48.4l1,13c0.1,1.2,0.3,2.1,0.7,2.7c0.6,1.1,1.6,1.5,3.1,1.4c1.9-0.2,3.2-1,3.8-2.7c0.3-0.9,0.4-2,0.3-3.4
			l-0.9-11.8l5.7-0.5l1.7,21.6l-5.5,0.4l-0.2-3.1c0,0.1-0.2,0.3-0.3,0.6c-0.2,0.3-0.4,0.7-0.7,0.9c-0.8,0.9-1.6,1.5-2.4,1.8
			c-0.8,0.4-1.8,0.6-2.9,0.7c-3.2,0.3-5.4-0.7-6.7-2.9c-0.7-1.2-1.2-3.1-1.4-5.5l-1-13L181.8,48.4z"/>
		<path d="M198.6,51.3l-0.3-4l3-0.2l-0.5-6l5.6-0.4l0.5,6l3.5-0.3l0.3,4l-3.5,0.3l0.9,11.4c0.1,0.9,0.2,1.4,0.5,1.6
			c0.2,0.2,0.9,0.3,2.1,0.2c0.2,0,0.4,0,0.5-0.1c0.2,0,0.4,0,0.6-0.1l0.3,4.2l-2.7,0.3c-2.7,0.3-4.5,0-5.6-1
			c-0.7-0.6-1.1-1.6-1.2-2.9l-1-13.3L198.6,51.3z"/>
	</g>
	<g>
		<path d="M63.5,456.7l3.4-0.3l0.8,10.3l12.9-1l-0.8-10.3l3.4-0.3l2,25l-3.4,0.3l-0.9-11.7l-12.9,1l0.9,11.7l-3.4,0.3L63.5,456.7z"
			/>
		<path d="M88.3,454.8l18.1-1.4l0.2,3.1l-14.8,1.2l0.6,7.6l13.7-1.1l0.2,2.9l-13.7,1.1l0.7,8.5l15.1-1.2l0.2,3l-18.4,1.4L88.3,454.8
			z"/>
		<path d="M110.2,453l3.4-0.3l1.7,22l12.5-1l0.2,3l-15.9,1.3L110.2,453z"/>
		<path d="M129,451.6l3.4-0.3l1.7,22l12.5-1l0.2,3l-15.9,1.3L129,451.6z"/>
		<path d="M167.9,452.1c1.8,2.1,2.9,4.8,3.2,8.3c0.3,3.7-0.4,6.9-2.1,9.5c-2,3.1-5.1,4.8-9.2,5.1c-3.8,0.3-7-0.7-9.4-3.1
			c-2.2-2.3-3.4-5.3-3.7-9.1c-0.3-3.4,0.3-6.3,1.8-8.9c1.9-3.3,5-5.1,9.2-5.4C162.2,448.3,165.6,449.4,167.9,452.1z M166.2,468.3
			c1.2-2.2,1.6-4.8,1.4-7.5c-0.2-2.9-1.2-5.2-2.9-6.9c-1.7-1.7-3.9-2.4-6.5-2.2c-2.6,0.2-4.6,1.3-6.1,3.2c-1.5,1.9-2.1,4.6-1.8,8.1
			c0.2,2.8,1.1,5.1,2.7,6.8c1.6,1.8,3.9,2.6,7,2.3C163,471.7,165,470.5,166.2,468.3z"/>
		<path d="M185.5,447.1l6.3,19.9l4.1-20.8l3.7-0.3l7.3,19.9l3.1-20.7l3.7-0.3l-4.6,25.5l-3.6,0.3l-7.4-20.3l-4.2,21.2l-3.6,0.3
			l-8.5-24.5L185.5,447.1z"/>
		<path d="M236.7,446.7c1.8,2.1,2.9,4.8,3.2,8.3c0.3,3.7-0.4,6.9-2.1,9.5c-2,3.1-5.1,4.8-9.2,5.1c-3.8,0.3-7-0.7-9.4-3.1
			c-2.2-2.3-3.4-5.3-3.7-9.1c-0.3-3.4,0.3-6.3,1.8-8.9c1.9-3.3,5-5,9.2-5.4C231,442.8,234.4,444,236.7,446.7z M235,462.8
			c1.2-2.2,1.6-4.8,1.4-7.5c-0.2-2.9-1.2-5.2-2.9-6.9c-1.7-1.7-3.9-2.4-6.5-2.2c-2.6,0.2-4.6,1.3-6.1,3.2c-1.5,1.9-2.1,4.6-1.8,8.1
			c0.2,2.8,1.1,5.1,2.7,6.8c1.5,1.8,3.9,2.6,7,2.3C231.7,466.3,233.8,465.1,235,462.8z"/>
		<path d="M242.9,442.6l11.4-0.9c1.9-0.1,3.4,0,4.7,0.5c2.4,0.9,3.7,2.8,3.9,5.6c0.1,1.5-0.1,2.7-0.6,3.7s-1.3,1.8-2.4,2.5
			c1,0.3,1.8,0.8,2.3,1.4s0.9,1.6,1.1,3.1l0.4,3.3c0.1,1,0.2,1.7,0.4,2.1c0.3,0.8,0.7,1.3,1.2,1.4v0.6l-4.2,0.3
			c-0.1-0.2-0.2-0.5-0.3-0.8c-0.1-0.3-0.2-1-0.3-2l-0.5-4.2c-0.2-1.6-0.9-2.7-2-3.1c-0.7-0.3-1.7-0.3-3-0.2l-7.5,0.6l0.8,10.7
			l-3.4,0.3L242.9,442.6z M254.8,453.2c1.5-0.1,2.7-0.5,3.6-1.2c0.8-0.7,1.2-1.9,1.1-3.5c-0.1-1.8-0.9-2.9-2.2-3.5
			c-0.7-0.3-1.6-0.4-2.7-0.3l-8,0.6l0.7,8.5L254.8,453.2z"/>
		<path d="M267,440.7l3.4-0.3l1.7,22l12.5-1l0.2,3l-15.9,1.3L267,440.7z"/>
		<path d="M285.9,439.2l10-0.8c3.4-0.3,6.1,0.7,8.2,3c1.8,2.1,2.9,4.8,3.2,8.3c0.2,2.7-0.1,5.1-0.9,7.3c-1.4,3.9-4.3,6.1-8.5,6.4
			l-10,0.8L285.9,439.2z M296.9,460.6c1.1-0.1,2-0.3,2.7-0.6c1.3-0.5,2.2-1.5,3-2.8c0.6-1.1,0.9-2.4,1.1-4c0.1-1,0.1-1.8,0-2.6
			c-0.2-3.1-1-5.5-2.4-7.1c-1.3-1.6-3.3-2.3-6-2.1l-5.9,0.5l1.5,19.2L296.9,460.6z"/>
	</g>
</g>
</svg>
