<?xml version="1.0" encoding="utf-8"?>
<!-- Generator: Adobe Illustrator 27.1.1, SVG Export Plug-In . SVG Version: 6.00 Build 0)  -->
<svg version="1.1" id="Layer_1" xmlns="http://www.w3.org/2000/svg" xmlns:xlink="http://www.w3.org/1999/xlink" x="0px" y="0px"
	 viewBox="0 0 365.8 503.3" style="enable-background:new 0 0 365.8 503.3;" xml:space="preserve">
<style type="text/css">
	.st0{fill:#FAFAFA;}
	.st1{fill:#F2F2F2;}
	.st2{fill:none;stroke:#E52421;stroke-width:10;stroke-miterlimit:10;}
</style>
<g>
	<g>
		
			<image style="overflow:visible;opacity:0.3333;enable-background:new    ;" width="1529" height="2104" xlink:href="9F1429B24501DC38.png"  transform="matrix(0.2392 0 0 0.2392 0 0)">
		</image>
		<g>
			<path class="st0" d="M49.2,497.7c-5.7,0-10.5-4.4-10.9-10.1L2.9,38.1c-0.2-2.9,0.7-5.8,2.6-8s4.6-3.6,7.5-3.8L312.7,2.7
				c0.3,0,0.6,0,0.9,0c5.7,0,10.5,4.4,10.9,10.1l35.4,449.5c0.2,2.9-0.7,5.8-2.6,8s-4.6,3.6-7.5,3.8L50.1,497.7
				C49.8,497.7,49.5,497.7,49.2,497.7z"/>
			<path class="st1" d="M313.6,5.2c4.4,0,8.1,3.4,8.4,7.8l35.4,449.5c0.2,2.3-0.5,4.4-2,6.2c-1.5,1.7-3.5,2.8-5.8,2.9L49.9,495.2
				c-0.2,0-0.5,0-0.7,0c-4.4,0-8.1-3.4-8.4-7.8L5.4,37.9c-0.2-2.3,0.5-4.4,2-6.2s3.5-2.8,5.8-2.9L312.9,5.2
				C313.1,5.2,313.4,5.2,313.6,5.2 M313.6,0.2c-0.4,0-0.7,0-1.1,0L12.8,23.8c-7.4,0.6-13,7.1-12.4,14.5l35.4,449.5
				c0.6,7.1,6.5,12.4,13.4,12.4c0.4,0,0.7,0,1.1,0L350,476.6c7.4-0.6,13-7.1,12.4-14.5L327,12.6C326.5,5.6,320.6,0.2,313.6,0.2
				L313.6,0.2z"/>
		</g>
	</g>
	<g>
		<g>
			<path d="M49,310.8c-0.4-4.8-0.8-9.6-1.1-14.3c4.8-0.4,9.5-0.7,14.4-1.1c-0.4-4.9-0.8-9.5-1.1-14.2c4.8-0.4,9.5-0.7,14.4-1.1
				c1.1,14.4,2.3,28.6,3.4,42.8c4.8-0.4,9.5-0.7,14.2-1.1c-2.6-33.5-5.3-66.8-7.9-100.4c-14.4,1.1-28.7,2.3-42.9,3.4
				c-0.8-9.6-1.5-19.1-2.3-28.7c9.5-0.8,19.1-1.5,28.6-2.2c-0.4-4.9-0.8-9.6-1.1-14.4c-4.8,0.4-9.4,0.7-14.1,1.1
				c-0.4-4.8-0.7-9.5-1.1-14.3c4.8-0.4,9.4-0.7,14.2-1.1c-0.4-4.8-0.7-9.5-1.1-14.2c4.9-0.4,9.6-0.8,14.4-1.1
				c0.4,4.8,0.7,9.4,1.1,14.1c4.8-0.4,9.5-0.7,14.4-1.1c-0.4-4.8-0.7-9.5-1.1-14.1c4.8-0.4,9.5-0.7,14.3-1.1
				c0.4,4.8,0.7,9.5,1.1,14.3c4.9-0.4,9.6-0.8,14.3-1.1h-0.1c0.4,4.8,0.7,9.5,1.1,14.5c-9.7,0.8-19.1,1.5-28.6,2.2
				c0.4,4.8,0.7,9.5,1.1,14.2c57.4-4.5,114.7-9,172.1-13.5c-0.8-9.6-1.5-19-2.2-28.6c4.9-0.4,9.6-0.8,14.3-1.1h-0.1
				c1.1,14.3,2.3,28.6,3.4,43.1c-4.9,0.4-9.5,0.8-14.2,1.1c0.8,9.7,1.5,19.1,2.2,28.6c4.8-0.4,9.4-0.7,14.2-1.1
				c-0.4-4.8-0.7-9.4-1.1-14.1c4.9-0.4,9.6-0.8,14.3-1.1c0.8,9.6,1.5,19.1,2.3,28.6v-0.1c-9.5,0.7-19,1.5-28.6,2.3
				c0.4,4.9,0.8,9.6,1.1,14.4c4.8-0.4,9.5-0.7,14.2-1.1c0.4,4.9,0.8,9.6,1.1,14.3v-0.1c-4.8,0.4-9.5,0.7-14.3,1.1
				c1.5,19.3,3,38.3,4.5,57.4c4.8-0.4,9.5-0.7,14.2-1.1h-0.1c0.1,0.7,0.2,1.4,0.3,2.1c1.1,13.7,2.2,27.3,3.3,41
				c-14.3,1.1-28.6,2.3-43.1,3.4c0.4,4.9,0.8,9.6,1.1,14.4l0.1-0.1c-4.8,0.4-9.6,0.8-14.4,1.2c-0.4-4.8-0.7-9.5-1.1-14.3
				c-4.9,0.4-9.6,0.8-14.3,1.1c0.4,4.8,0.8,9.5,1.1,14.3c-9.6,0.8-19.2,1.5-28.7,2.3c-0.4-4.8-0.7-9.5-1.1-14.3
				c-4.9,0.4-9.6,0.8-14.3,1.1c0.4,4.8,0.8,9.5,1.1,14.3c-4.8,0.4-9.6,0.8-14.4,1.1c-0.4-4.8-0.7-9.5-1.1-14.3
				c-4.9,0.4-9.6,0.8-14.3,1.1c0.4,4.8,0.8,9.5,1.1,14.3c-4.8,0.4-9.6,0.8-14.4,1.1c-0.4-4.8-0.7-9.5-1.1-14.4
				c-14.4,1.1-28.7,2.3-43.1,3.4c-0.8-9.6-1.5-19.1-2.3-28.7c-4.9,0.4-9.6,0.8-14.3,1.1l0.1,0.1c-0.4-4.8-0.7-9.5-1.1-14.4
				c-5,0.4-9.7,0.8-14.4,1.1h0.1c-0.8-9.5-1.5-19.1-2.3-28.7C58.4,310.1,53.7,310.5,49,310.8z M98.6,205.9
				c4.1,52.7,8.3,105.2,12.4,157.6c52.6-4.1,105.1-8.3,157.6-12.4c-4.1-52.6-8.3-105.1-12.4-157.6
				C203.7,197.7,151.2,201.8,98.6,205.9z"/>
			<path d="M316.3,405.3c-0.4-4.7-0.7-9.4-1.1-14.3c-4.8,0.4-9.5,0.7-14.4,1.1c-0.8-9.7-1.5-19.2-2.3-28.8c4.8-0.4,9.6-0.7,14.4-1.1
				h-0.1c0.4,4.7,0.7,9.4,1.1,14.3c4.8-0.4,9.5-0.7,14.4-1.1c0.8,9.7,1.5,19.2,2.3,28.8C325.9,404.6,321.1,404.9,316.3,405.3z"/>
			<path d="M86.7,423.4c-0.7-9.5-1.5-19-2.2-28.6c9.6-0.8,19-1.5,28.7-2.3c0.7,9.5,1.5,19,2.2,28.6
				C105.9,421.9,96.3,422.6,86.7,423.4z"/>
			<path d="M256.6,381.2c9.5-0.7,19-1.5,28.6-2.2c0.4,4.7,0.7,9.4,1.1,14.3c-4.6,0.4-9.3,0.7-14.2,1.1c0.4,4.9,0.8,9.7,1.1,14.4
				c-9.6,0.8-19.1,1.5-28.7,2.3c-0.4-4.8-0.8-9.6-1.2-14.4c4.8-0.4,9.5-0.7,14.4-1.1C257.4,390.5,257.1,385.8,256.6,381.2
				L256.6,381.2z"/>
			<path d="M81.1,351.6c0.4,4.7,0.7,9.4,1.1,14.4c-9.6,0.8-19.1,1.5-28.7,2.3c-0.8-9.6-1.5-19.1-2.3-28.7c4.8-0.4,9.6-0.7,14.4-1.1
				h-0.1c0.4,4.8,0.7,9.5,1.1,14.4C71.7,352.4,76.4,352,81.1,351.6L81.1,351.6z"/>
			<path d="M141.9,390.1c0.7,9.6,1.5,19.2,2.2,28.7c-4.8,0.4-9.6,0.8-14.3,1.1c-0.7-9.5-1.5-19-2.3-28.7
				C132.4,390.9,137.2,390.5,141.9,390.1z"/>
			<path d="M44.5,253.4c9.5-0.7,19-1.5,28.6-2.2c0.4,4.8,0.7,9.4,1.1,14.3c-9.5,0.7-19,1.5-28.6,2.2C45.2,263,44.9,258.2,44.5,253.4
				z"/>
			<path d="M229.1,397.7c0.4,4.8,0.7,9.6,1.1,14.4c-4.8,0.4-9.6,0.8-14.3,1.1c-0.4-4.7-0.7-9.4-1.1-14.4
				C219.6,398.5,224.4,398.1,229.1,397.7z"/>
			<path d="M123.8,160.6c-0.4-4.7-0.7-9.4-1.1-14.3c9.5-0.8,19-1.5,28.6-2.2c0.7,9.5,1.5,18.9,2.2,28.5c-4.7,0.4-9.3,0.7-14.2,1.1
				c-0.4-4.7-0.7-9.3-1.1-14.3C133.3,159.8,128.5,160.2,123.8,160.6L123.8,160.6z"/>
			<path d="M224.2,152.7c4.7-0.4,9.4-0.7,14.3-1.1c-0.4-4.8-0.7-9.5-1.1-14.3c4.8-0.4,9.5-0.7,14.2-1.1c0.7,9.4,1.5,18.9,2.2,28.5
				c-9.4,0.7-18.9,1.5-28.5,2.2C225,162.1,224.7,157.4,224.2,152.7L224.2,152.7z"/>
			<path d="M209.8,153.7c0.4,4.7,0.7,9.4,1.1,14.3c-14.2,1.1-28.4,2.2-42.8,3.4c-0.4-4.6-0.7-9.3-1.1-14.2
				C181.3,156,195.6,154.9,209.8,153.7C209.9,153.8,209.8,153.7,209.8,153.7z"/>
			<path d="M281.7,148.2c-0.4-4.7-0.7-9.4-1.1-14.3c9.5-0.7,19-1.5,28.6-2.2c0.4,4.7,0.7,9.3,1.1,14.2
				C300.7,146.6,291.2,147.4,281.7,148.2C281.6,148.1,281.7,148.2,281.7,148.2z"/>
			<path d="M313,362.3c-0.4-4.7-0.7-9.4-1.1-14.2c4.7-0.4,9.4-0.7,14.2-1.1c0.4,4.7,0.7,9.3,1.1,14.2
				C322.4,361.5,317.7,361.9,313,362.3C312.9,362.2,313,362.3,313,362.3z"/>
			<path d="M309.5,319.3c4.8-0.4,9.5-0.7,14.3-1.1c0.4,4.7,0.7,9.3,1.1,14.1c-4.6,0.4-9.3,0.7-14.3,1.1
				C310.3,328.7,309.9,324,309.5,319.3L309.5,319.3z"/>
			<path d="M308.4,304.8c0.4,4.8,0.7,9.6,1.1,14.5v-0.1c-4.8,0.3-9.6,0.7-14.4,1h0.1c-0.4-4.7-0.7-9.4-1.1-14.3
				C299,305.6,303.7,305.3,308.4,304.8C308.4,304.9,308.4,304.8,308.4,304.8z"/>
			<path d="M308.4,304.9c-0.4-4.7-0.7-9.4-1.1-14.2c4.7-0.4,9.4-0.7,14.2-1.1c0.4,4.7,0.7,9.3,1.1,14.2
				C317.9,304.1,313.1,304.5,308.4,304.9C308.4,304.8,308.4,304.9,308.4,304.9z"/>
			<path d="M290.7,263c4.7-0.4,9.4-0.7,14.2-1.1c0.4,4.7,0.7,9.4,1.1,14.2c-4.7,0.4-9.3,0.7-14.2,1.1
				C291.5,272.4,291.1,267.7,290.7,263C290.7,262.9,290.7,263,290.7,263z"/>
			<path d="M302.7,233.1c4.7-0.4,9.4-0.7,14.2-1.1c0.4,4.7,0.7,9.4,1.1,14.2c-4.7,0.4-9.3,0.7-14.2,1.1
				C303.5,242.6,303.2,237.8,302.7,233.1C302.8,233.1,302.7,233.1,302.7,233.1z"/>
			<path d="M224.3,152.6c-4.8,0.4-9.7,0.7-14.5,1.1h0.1c-0.4-4.7-0.7-9.4-1.1-14.2c4.8-0.4,9.5-0.7,14.4-1.1
				C223.5,143.2,223.9,148,224.3,152.6C224.2,152.7,224.3,152.6,224.3,152.6z"/>
			<ellipse cx="235.7" cy="390" rx="10.2" ry="10.2"/>
			<path d="M184.9,386.7c4.8-0.4,9.6-0.8,14.4-1.1c0.4,4.7,0.7,9.4,1.1,14.2c-4.8,0.4-9.5,0.7-14.4,1.1
				C185.7,396.2,185.3,391.5,184.9,386.7z"/>
			<path d="M156.2,389c4.8-0.4,9.6-0.8,14.4-1.1c0.4,4.7,0.7,9.4,1.1,14.2c-4.8,0.4-9.5,0.7-14.4,1.1
				C157,398.5,156.6,393.8,156.2,389z"/>
			<path d="M243.1,209.1c3.4,43,6.8,85.9,10.1,128.9c-43,3.4-85.9,6.8-128.9,10.1c-3.4-42.9-6.8-85.8-10.1-128.9
				C157,215.8,200,212.5,243.1,209.1z M137.4,332.6c33.5-2.6,66.9-5.3,100.2-7.9c-2.6-33.5-5.3-66.9-7.9-100.2
				c-33.5,2.6-66.8,5.3-100.2,7.9C132.2,265.8,134.8,299.2,137.4,332.6z"/>
			<path d="M145.1,245.6c23.9-1.9,47.7-3.8,71.5-5.6c1.9,23.8,3.7,47.6,5.6,71.5c-23.8,1.9-47.6,3.7-71.5,5.6
				C148.8,293.4,147,269.6,145.1,245.6z M163.9,301.7c14.4-1.1,28.6-2.3,42.8-3.4c-1.1-14.4-2.3-28.6-3.4-42.8
				c-14.3,1.1-28.5,2.2-42.8,3.4C161.6,273.1,162.7,287.3,163.9,301.7z"/>
			<path d="M190.2,271c0.4,4.7,0.7,9.3,1.1,14.1c-4.7,0.4-9.4,0.7-14.1,1.1c-0.4-4.7-0.7-9.3-1.1-14.1
				C180.7,271.7,185.3,271.3,190.2,271z"/>
		</g>
	</g>
	<g>
		<path d="M34.6,54.2c2.1-2.5,4.9-3.9,8.5-4.2c4.8-0.4,8.3,0.9,10.8,3.9c1.4,1.7,2.1,3.4,2.4,5.2l-6,0.5c-0.5-1.3-1.1-2.3-1.7-3
			c-1.2-1.2-2.8-1.7-4.9-1.5s-3.7,1.2-4.8,3c-1.1,1.8-1.5,4.4-1.3,7.6c0.3,3.2,1.1,5.5,2.5,7s3.1,2.2,5.1,2s3.6-1,4.5-2.4
			c0.5-0.8,0.9-1.9,1.2-3.4l5.9-0.5c-0.3,3.2-1.4,5.8-3.3,7.9c-1.9,2.1-4.6,3.3-7.8,3.6c-4.1,0.3-7.4-0.7-9.9-3.2s-4-6-4.3-10.6
			C31.1,61.1,32.2,57.2,34.6,54.2z"/>
		<path d="M75,55.7c1.1,0.4,2,1,2.8,1.9c0.6,0.7,1.1,1.5,1.3,2.3s0.4,2.2,0.5,4.1l1,12.4L75,76.8l-1-12.9c-0.1-1.1-0.4-2-0.8-2.7
			c-0.6-0.9-1.6-1.4-3-1.2c-1.4,0.1-2.5,0.7-3.2,1.7s-0.9,2.5-0.8,4.3l0.9,11.4l-5.5,0.4l-2.2-28.4l5.5-0.4l0.8,10.1
			c0.7-1.3,1.6-2.2,2.6-2.8s2.1-0.9,3.2-1C72.7,55.2,73.9,55.3,75,55.7z"/>
		<path d="M97.6,54.2c1.5,0.5,2.8,1.5,3.9,2.8c1,1.2,1.6,2.6,2,4.2c0.2,1,0.4,2.3,0.5,4.2l-15.4,1.2c0.3,2.1,1.1,3.5,2.6,4.3
			c0.9,0.5,1.9,0.6,3.1,0.6c1.3-0.1,2.3-0.5,3-1.2c0.4-0.4,0.7-0.9,1-1.5l5.6-0.4c0,1.3-0.6,2.6-1.7,4c-1.7,2.2-4.3,3.4-7.7,3.7
			c-2.8,0.2-5.4-0.4-7.6-2c-2.3-1.6-3.6-4.3-3.9-8.2c-0.3-3.7,0.5-6.5,2.2-8.6c1.8-2.1,4.2-3.3,7.3-3.5C94.4,53.5,96,53.7,97.6,54.2
			z M89.7,59.6c-0.7,0.9-1.1,2-1.2,3.4l9.5-0.7c-0.2-1.5-0.8-2.5-1.7-3.2s-2.1-1-3.4-0.9C91.5,58.3,90.4,58.8,89.7,59.6z"/>
		<path d="M119.4,59.7c-0.2-0.8-0.5-1.5-1-2.1c-0.7-0.8-1.7-1.2-3-1.1c-1.9,0.1-3.1,1.2-3.6,3.1c-0.3,1-0.4,2.3-0.2,3.9
			c0.1,1.5,0.4,2.8,0.8,3.7c0.8,1.7,2.1,2.5,3.9,2.3c1.3-0.1,2.2-0.5,2.7-1.3c0.5-0.7,0.7-1.7,0.8-2.8l5.6-0.4
			c0,1.7-0.5,3.3-1.4,4.9c-1.5,2.6-4,4-7.4,4.2c-3.4,0.3-6-0.5-7.7-2.4c-1.8-1.9-2.8-4.4-3-7.6c-0.3-3.6,0.4-6.5,2-8.7
			s4-3.4,7.1-3.6c2.6-0.2,4.9,0.2,6.6,1.3c1.8,1.1,2.9,3.1,3.5,6.1L119.4,59.7z"/>
		<path d="M127.2,44.1l5.4-0.4l1.2,15.4l6.3-8.5l6.9-0.5l-6.9,8.5l8.9,12.5l-6.7,0.5l-5.8-8.6l-2.1,2.6l0.5,6.6l-5.4,0.4L127.2,44.1
			z"/>
		<path d="M167.8,66.9c-1.6,2.3-4.2,3.7-7.9,3.9c-3.6,0.3-6.4-0.6-8.4-2.7s-3.1-4.6-3.3-7.7c-0.2-3,0.4-5.8,2-8.1
			c1.6-2.4,4.2-3.7,7.9-4c3.6-0.3,6.4,0.6,8.4,2.7c2,2.1,3.1,4.7,3.3,7.7C170.1,61.8,169.4,64.5,167.8,66.9z M163.1,64.2
			c0.8-1.2,1.1-2.9,0.9-5c-0.2-2.1-0.7-3.7-1.7-4.8s-2.2-1.5-3.9-1.4c-1.6,0.1-2.8,0.8-3.6,2s-1.1,2.9-0.9,5
			c0.2,2.1,0.7,3.7,1.7,4.8c1,1.1,2.2,1.6,3.9,1.4C161.1,66.1,162.3,65.4,163.1,64.2z"/>
		<path d="M177.9,47.4l1,12.7c0.1,1.2,0.3,2.1,0.6,2.7c0.6,1,1.6,1.5,3.1,1.4c1.9-0.1,3.1-1,3.7-2.6c0.3-0.9,0.4-2,0.3-3.3
			l-0.9-11.5l5.6-0.4l1.7,21.1l-5.4,0.4l-0.2-3c0,0.1-0.2,0.3-0.3,0.6c-0.2,0.3-0.4,0.6-0.7,0.9c-0.8,0.8-1.6,1.4-2.4,1.8
			c-0.8,0.3-1.7,0.6-2.8,0.6c-3.1,0.2-5.3-0.7-6.6-2.9c-0.7-1.2-1.1-3-1.3-5.4l-1-12.7L177.9,47.4z"/>
		<path d="M194.3,50.3l-0.3-3.9l2.9-0.2l-0.5-5.9l5.5-0.4l0.5,5.9l3.4-0.3l0.3,3.9l-3.4,0.3l0.9,11.2c0.1,0.9,0.2,1.4,0.5,1.6
			s0.9,0.2,2,0.2c0.2,0,0.3,0,0.5-0.1c0.2,0,0.4,0,0.5-0.1l0.3,4.1l-2.6,0.3c-2.6,0.3-4.4,0-5.5-0.9c-0.7-0.6-1.1-1.5-1.2-2.9l-1-13
			L194.3,50.3z"/>
	</g>
	<g>
		<path d="M62.4,446.2l3.3-0.3l0.8,10.1l12.5-1l-0.8-10.1l3.3-0.3l1.9,24.4l-3.3,0.3l-0.9-11.4l-12.5,1l0.9,11.4l-3.3,0.3
			L62.4,446.2z"/>
		<path d="M86.6,444.3l17.7-1.4l0.2,3L90,447l0.6,7.4l13.4-1.1l0.2,2.8l-13.4,1.1l0.7,8.3l14.7-1.2l0.2,2.9l-18,1.4L86.6,444.3z"/>
		<path d="M108,442.6l3.3-0.3l1.7,21.5l12.2-1l0.2,2.9l-15.6,1.2L108,442.6z"/>
		<path d="M126.3,441.2l3.3-0.3l1.7,21.5l12.2-1l0.2,2.9l-15.6,1.2L126.3,441.2z"/>
		<path d="M164.3,441.7c1.8,2,2.8,4.7,3.1,8.1c0.3,3.6-0.4,6.7-2.1,9.3c-1.9,3-4.9,4.7-9,5c-3.8,0.3-6.8-0.7-9.2-3
			c-2.1-2.2-3.3-5.2-3.6-8.8c-0.3-3.3,0.3-6.2,1.8-8.7c1.9-3.2,4.9-4.9,9-5.3C158.8,438,162.1,439.1,164.3,441.7z M162.7,457.5
			c1.1-2.2,1.6-4.6,1.4-7.4c-0.2-2.9-1.2-5.1-2.8-6.8c-1.6-1.6-3.8-2.3-6.4-2.1c-2.5,0.2-4.5,1.2-6,3.1s-2.1,4.5-1.8,7.9
			c0.2,2.7,1.1,4.9,2.6,6.7c1.5,1.8,3.8,2.5,6.9,2.3C159.5,460.9,161.5,459.7,162.7,457.5z"/>
		<path d="M181.5,436.8l6.2,19.5l4-20.3l3.6-0.3l7.1,19.4l3-20.2l3.6-0.3l-4.5,24.9l-3.5,0.3l-7.2-19.8l-4.1,20.7l-3.5,0.3
			l-8.3-23.9L181.5,436.8z"/>
		<path d="M231.5,436.4c1.8,2,2.8,4.7,3.1,8.1c0.3,3.6-0.4,6.7-2.1,9.3c-1.9,3-4.9,4.7-9,5c-3.8,0.3-6.8-0.7-9.2-3
			c-2.1-2.2-3.3-5.2-3.6-8.8c-0.3-3.3,0.3-6.2,1.8-8.7c1.9-3.2,4.9-4.9,9-5.3C225.9,432.7,229.2,433.8,231.5,436.4z M229.8,452.2
			c1.1-2.2,1.6-4.6,1.4-7.4c-0.2-2.9-1.2-5.1-2.8-6.8c-1.6-1.6-3.8-2.3-6.4-2.1c-2.5,0.2-4.5,1.2-6,3.1s-2.1,4.5-1.8,7.9
			c0.2,2.7,1.1,4.9,2.6,6.7c1.5,1.8,3.8,2.5,6.9,2.3C226.7,455.6,228.7,454.4,229.8,452.2z"/>
		<path d="M237.5,432.4l11.1-0.9c1.8-0.1,3.4,0,4.6,0.5c2.3,0.9,3.6,2.7,3.8,5.5c0.1,1.5-0.1,2.7-0.6,3.7s-1.3,1.8-2.4,2.4
			c1,0.3,1.7,0.8,2.3,1.4c0.5,0.6,0.9,1.6,1,3l0.4,3.3c0.1,0.9,0.2,1.6,0.4,2.1c0.3,0.8,0.7,1.2,1.2,1.4v0.5l-4.1,0.3
			c-0.1-0.2-0.2-0.5-0.3-0.8c-0.1-0.3-0.2-1-0.3-1.9l-0.5-4.1c-0.2-1.6-0.9-2.6-2-3.1c-0.6-0.3-1.6-0.3-2.9-0.2l-7.3,0.6l0.8,10.5
			l-3.3,0.3L237.5,432.4z M249.1,442.8c1.5-0.1,2.7-0.5,3.5-1.2s1.2-1.8,1.1-3.5s-0.8-2.9-2.1-3.4c-0.7-0.3-1.6-0.4-2.7-0.3L241,435
			l0.7,8.3L249.1,442.8z"/>
		<path d="M261.1,430.6l3.3-0.3l1.7,21.5l12.2-1l0.2,2.9l-15.6,1.2L261.1,430.6z"/>
		<path d="M279.5,429.1l9.8-0.8c3.3-0.3,6,0.7,8,3c1.8,2,2.8,4.7,3.1,8.1c0.2,2.6-0.1,5-0.9,7.1c-1.4,3.8-4.2,5.9-8.3,6.2l-9.7,0.8
			L279.5,429.1z M290.3,450c1.1-0.1,2-0.3,2.7-0.6c1.2-0.5,2.2-1.4,2.9-2.7c0.6-1,0.9-2.3,1.1-3.9c0.1-0.9,0.1-1.8,0-2.6
			c-0.2-3-1-5.3-2.3-6.9s-3.3-2.3-5.9-2.1l-5.7,0.5l1.5,18.7L290.3,450z"/>
	</g>
	<g>
		<g>
			<line class="st2" x1="350.2" y1="307" x2="23.6" y2="332.7"/>
		</g>
	</g>
</g>
</svg>
